<svg width="103" height="139" viewBox="0 0 103 139" fill="none" xmlns="http://www.w3.org/2000/svg">
<path d="M0.599121 97.0105C3.07791 109.13 8.98889 118.977 18.1413 126.741C27.2938 134.315 39.1157 138.102 53.7978 138.102C82.5899 138.102 102.42 120.871 102.42 98.336C102.42 77.8849 87.5474 65.5763 59.1367 60.2742C34.5395 55.5401 22.3362 48.155 22.3362 34.7103C22.3362 21.8337 34.3488 14.0698 51.1283 14.0698C68.4798 14.0698 81.2551 23.1592 87.166 40.0124L99.7507 32.6273C92.8863 12.3655 74.9628 0.246338 51.3189 0.246338C25.5777 0.246338 6.89147 14.4485 6.89147 34.8997C6.89147 54.7827 21.3829 67.47 50.5563 72.7721C74.2001 77.1274 86.4034 84.8913 86.4034 99.4722C86.4034 112.728 73.6281 124.279 53.6071 124.279C32.2514 124.279 19.4761 111.781 14.8999 89.6254L0.599121 97.0105Z" fill="black"/>
</svg>
